ZiroliWes-Regular-Medium.ufo
<glyph name="parenleft" format="1">
  <advance width="373.0"/>
  <unicode hex="0028"/>
  <outline>
    <contour>
      <point x="321" y="790" type="curve"/>
      <point x="336" y="768" type="line"/>
      <point x="189" y="685"/>
      <point x="144" y="535"/>
      <point x="144" y="353" type="curve" smooth="yes"/>
      <point x="144" y="203"/>
      <point x="191" y="26"/>
      <point x="344" y="-93" type="curve"/>
      <point x="321" y="-112" type="line"/>
      <point x="212" y="-34"/>
      <point x="59" y="124"/>
      <point x="59" y="324" type="curve" smooth="yes"/>
      <point x="59" y="585"/>
      <point x="200" y="706"/>
    </contour>
  </outline>
</glyph>
<glyph name="period" format="1">
  <advance width="231.0"/>
  <unicode hex="002E"/>
  <outline>
    <contour>
      <point x="46" y="41" type="curve" smooth="yes"/>
      <point x="46" y="9"/>
      <point x="78" y="-28"/>
      <point x="115" y="-28" type="curve" smooth="yes"/>
      <point x="154" y="-28"/>
      <point x="185" y="9"/>
      <point x="185" y="41" type="curve" smooth="yes"/>
      <point x="185" y="74"/>
      <point x="154" y="111"/>
      <point x="115" y="111" type="curve" smooth="yes"/>
      <point x="78" y="111"/>
      <point x="46" y="74"/>
    </contour>
  </outline>
</glyph>
<glyph name="slash" format="1">
  <advance width="526.0"/>
  <unicode hex="002F"/>
  <outline>
    <contour>
      <point x="19" y="-4" type="curve"/>
      <point x="19" y="12" type="line"/>
      <point x="84" y="11"/>
      <point x="101" y="15"/>
      <point x="176" y="197" type="curve" smooth="yes"/>
      <point x="227" y="320"/>
      <point x="341" y="631"/>
      <point x="354" y="689" type="curve"/>
      <point x="356" y="702" type="line"/>
      <point x="397" y="697"/>
      <point x="473" y="697"/>
      <point x="516" y="702" type="curve"/>
      <point x="516" y="688" type="line"/>
      <point x="443" y="691"/>
      <point x="410" y="664"/>
      <point x="300" y="387" type="curve" smooth="yes"/>
      <point x="237" y="227"/>
      <point x="181" y="57"/>
      <point x="175" y="0" type="curve"/>
      <point x="125" y="4"/>
      <point x="66" y="2"/>
    </contour>
  </outline>
</glyph>
<glyph name="zero" format="1">
  <advance width="701.0"/>
  <unicode hex="0030"/>
  <outline>
    <contour>
      <point x="60" y="346" type="curve" smooth="yes"/>
      <point x="60" y="143"/>
      <point x="147" y="-16"/>
      <point x="350" y="-16" type="curve" smooth="yes"/>
      <point x="520" y="-16"/>
      <point x="640" y="119"/>
      <point x="640" y="345" type="curve" smooth="yes"/>
      <point x="640" y="539"/>
      <point x="535" y="681"/>
      <point x="360" y="681" type="curve" smooth="yes"/>
      <point x="159" y="681"/>
      <point x="60" y="518"/>
    </contour>
    <contour>
      <point x="350" y="635" type="curve" smooth="yes"/>
      <point x="468" y="635"/>
      <point x="526" y="504"/>
      <point x="526" y="316" type="curve" smooth="yes"/>
      <point x="526" y="151"/>
      <point x="468" y="30"/>
      <point x="350" y="30" type="curve" smooth="yes"/>
      <point x="232" y="30"/>
      <point x="174" y="166"/>
      <point x="174" y="331" type="curve" smooth="yes"/>
      <point x="174" y="514"/>
      <point x="229" y="635"/>
    </contour>
  </outline>
</glyph>
<glyph name="two" format="1">
  <advance width="564"/>
  <unicode hex="0032"/>
  <outline>
    <contour>
      <point x="117" y="8" type="move"/>
      <point x="135" y="29" type="line" smooth="yes"/>
      <point x="299" y="195"/>
      <point x="478" y="379"/>
      <point x="478" y="504" type="curve" smooth="yes"/>
      <point x="478" y="633"/>
      <point x="366" y="681"/>
      <point x="256" y="681" type="curve" smooth="yes"/>
      <point x="131" y="681"/>
      <point x="41" y="604"/>
      <point x="41" y="513" type="curve" smooth="yes"/>
      <point x="41" y="459"/>
      <point x="75" y="415"/>
      <point x="138" y="390" type="curve"/>
      <point x="144" y="400" type="line"/>
      <point x="123" y="421"/>
      <point x="108" y="466"/>
      <point x="108" y="507" type="curve" smooth="yes"/>
      <point x="108" y="582"/>
      <point x="150" y="629"/>
      <point x="225" y="629" type="curve" smooth="yes"/>
      <point x="285" y="629"/>
      <point x="356" y="595"/>
      <point x="356" y="495" type="curve" smooth="yes"/>
      <point x="356" y="381"/>
      <point x="213" y="176"/>
      <point x="48" y="11" type="curve" smooth="yes"/>
    </contour>
    <contour>
      <point x="118" y="70" type="curve"/>
      <point x="48" y="11" type="line"/>
      <point x="48" y="-8" type="line"/>
      <point x="132" y="-4"/>
      <point x="333" y="0"/>
      <point x="366" y="0" type="curve" smooth="yes"/>
      <point x="393" y="0"/>
      <point x="475" y="0"/>
      <point x="514" y="-2" type="curve"/>
      <point x="517" y="18" type="line"/>
      <point x="517" y="63"/>
      <point x="519" y="109"/>
      <point x="547" y="201" type="curve"/>
      <point x="530" y="210" type="line"/>
      <point x="506" y="83"/>
      <point x="466" y="60"/>
      <point x="275" y="60" type="curve" smooth="yes"/>
      <point x="229" y="60"/>
      <point x="145" y="66"/>
    </contour>
  </outline>
</glyph>
<glyph name="three" format="1">
  <advance width="568.0"/>
  <unicode hex="0033"/>
  <outline>
    <contour>
      <point x="283" y="369" type="curve"/>
      <point x="176" y="349" type="line"/>
      <point x="185" y="340" type="line"/>
      <point x="203" y="346"/>
      <point x="221" y="348"/>
      <point x="241" y="348" type="curve" smooth="yes"/>
      <point x="356" y="348"/>
      <point x="427" y="293"/>
      <point x="427" y="198" type="curve" smooth="yes"/>
      <point x="427" y="151"/>
      <point x="416" y="114"/>
      <point x="392" y="86" type="curve" smooth="yes"/>
      <point x="363" y="52"/>
      <point x="322" y="35"/>
      <point x="275" y="36" type="curve" smooth="yes"/>
      <point x="181" y="37"/>
      <point x="100" y="104"/>
      <point x="100" y="190" type="curve" smooth="yes"/>
      <point x="100" y="204"/>
      <point x="102" y="217"/>
      <point x="110" y="227" type="curve"/>
      <point x="102" y="235" type="line"/>
      <point x="84" y="215"/>
      <point x="62" y="172"/>
      <point x="62" y="129" type="curve" smooth="yes"/>
      <point x="62" y="44"/>
      <point x="134" y="-18"/>
      <point x="270" y="-18" type="curve" smooth="yes"/>
      <point x="431" y="-18"/>
      <point x="541" y="80"/>
      <point x="541" y="215" type="curve" smooth="yes"/>
      <point x="541" y="327"/>
      <point x="470" y="387"/>
      <point x="381" y="387" type="curve" smooth="yes"/>
      <point x="347" y="387"/>
      <point x="311" y="381"/>
    </contour>
    <contour>
      <point x="396" y="636" type="line"/>
      <point x="352" y="564"/>
      <point x="256" y="430"/>
      <point x="176" y="349" type="curve"/>
      <point x="311" y="363" type="line"/>
      <point x="349" y="418"/>
      <point x="442" y="543"/>
      <point x="546" y="666" type="curve"/>
      <point x="544" y="680" type="line"/>
      <point x="521" y="676"/>
      <point x="455" y="666"/>
      <point x="310" y="666" type="curve"/>
      <point x="310" y="639" type="line"/>
    </contour>
    <contour>
      <point x="454" y="603" type="curve"/>
      <point x="454" y="620"/>
      <point x="468" y="652"/>
      <point x="468" y="666" type="curve"/>
      <point x="310" y="666" type="line" smooth="yes"/>
      <point x="241" y="666"/>
      <point x="177" y="672"/>
      <point x="138" y="682" type="curve" smooth="yes"/>
      <point x="118" y="687"/>
      <point x="107" y="694"/>
      <point x="105" y="704" type="curve"/>
      <point x="93" y="702" type="line"/>
      <point x="93" y="666"/>
      <point x="81" y="572"/>
      <point x="56" y="497" type="curve"/>
      <point x="71" y="495" type="line"/>
      <point x="93" y="600"/>
      <point x="124" y="612"/>
      <point x="283" y="612" type="curve" smooth="yes"/>
      <point x="333" y="612"/>
      <point x="392" y="609"/>
    </contour>
  </outline>
</glyph>
<glyph name="four" format="1">
  <advance width="689.0"/>
  <unicode hex="0034"/>
  <outline>
    <contour>
      <point x="260" y="382" type="curve" smooth="yes"/>
      <point x="394" y="630"/>
      <point x="438" y="657"/>
      <point x="508" y="666" type="curve"/>
      <point x="508" y="680" type="line"/>
      <point x="470" y="674"/>
      <point x="439" y="672"/>
      <point x="355" y="672" type="curve" smooth="yes"/>
      <point x="304" y="672"/>
      <point x="260" y="676"/>
      <point x="227" y="680" type="curve"/>
      <point x="227" y="666" type="line"/>
      <point x="307" y="660"/>
      <point x="335" y="630"/>
      <point x="212" y="414" type="curve" smooth="yes"/>
      <point x="171" y="342"/>
      <point x="113" y="253"/>
      <point x="64" y="195" type="curve"/>
      <point x="175" y="195" type="line"/>
      <point x="192" y="245"/>
      <point x="226" y="318"/>
    </contour>
    <contour>
      <point x="128" y="254" type="curve"/>
      <point x="64" y="195" type="line"/>
      <point x="72" y="181" type="line"/>
      <point x="156" y="189"/>
      <point x="321" y="191"/>
      <point x="429" y="188" type="curve"/>
      <point x="506" y="191"/>
      <point x="607" y="188"/>
      <point x="634" y="185" type="curve"/>
      <point x="635" y="197" type="line"/>
      <point x="629" y="249"/>
      <point x="647" y="329"/>
      <point x="664" y="370" type="curve"/>
      <point x="647" y="374" type="line"/>
      <point x="625" y="271"/>
      <point x="581" y="248"/>
      <point x="483" y="250" type="curve"/>
      <point x="392" y="247" type="line"/>
      <point x="356" y="244"/>
      <point x="310" y="244"/>
      <point x="259" y="244" type="curve" smooth="yes"/>
      <point x="204" y="244"/>
      <point x="157" y="250"/>
    </contour>
    <contour>
      <point x="384" y="384" type="curve"/>
      <point x="385" y="365"/>
      <point x="386" y="283"/>
      <point x="384" y="209" type="curve"/>
      <point x="482" y="209" type="line"/>
      <point x="481" y="292"/>
      <point x="486" y="392"/>
      <point x="491" y="421" type="curve"/>
      <point x="484" y="423" type="line"/>
      <point x="461" y="404"/>
      <point x="419" y="392"/>
    </contour>
    <contour>
      <point x="582" y="-4" type="curve"/>
      <point x="582" y="12" type="line"/>
      <point x="490" y="17"/>
      <point x="480" y="38"/>
      <point x="480" y="248" type="curve" smooth="yes"/>
      <point x="480" y="310" type="line"/>
      <point x="385" y="310" type="line"/>
      <point x="386" y="248" type="line" smooth="yes"/>
      <point x="389" y="38"/>
      <point x="378" y="17"/>
      <point x="284" y="10" type="curve"/>
      <point x="284" y="-4" type="line"/>
      <point x="329" y="0"/>
      <point x="393" y="4"/>
      <point x="430" y="4" type="curve" smooth="yes"/>
      <point x="469" y="4"/>
      <point x="544" y="0"/>
    </contour>
  </outline>
</glyph>
<glyph name="nine" format="1">
  <advance width="605.0"/>
  <unicode hex="0039"/>
  <outline>
    <contour>
      <point x="428" y="549" type="line"/>
      <point x="439" y="524"/>
      <point x="445" y="499"/>
      <point x="446" y="472" type="curve" smooth="yes"/>
      <point x="448" y="398"/>
      <point x="414" y="316"/>
      <point x="326" y="316" type="curve" smooth="yes"/>
      <point x="238" y="317"/>
      <point x="176" y="385"/>
      <point x="176" y="484" type="curve" smooth="yes"/>
      <point x="176" y="574"/>
      <point x="226" y="633"/>
      <point x="309" y="633" type="curve" smooth="yes"/>
      <point x="384" y="633"/>
      <point x="454" y="568"/>
      <point x="457" y="400" type="curve"/>
      <point x="457" y="400" type="line"/>
      <point x="461" y="369"/>
      <point x="463" y="339"/>
      <point x="463" y="330" type="curve" smooth="yes"/>
      <point x="465" y="168"/>
      <point x="405" y="32"/>
      <point x="265" y="32" type="curve" smooth="yes"/>
      <point x="218" y="32"/>
      <point x="159" y="49"/>
      <point x="129" y="83" type="curve" smooth="yes"/>
      <point x="107" y="108"/>
      <point x="88" y="145"/>
      <point x="96" y="178" type="curve"/>
      <point x="88" y="178" type="line"/>
      <point x="77" y="161"/>
      <point x="60" y="129"/>
      <point x="60" y="97" type="curve"/>
      <point x="60" y="21"/>
      <point x="136" y="-20"/>
      <point x="248" y="-20" type="curve" smooth="yes"/>
      <point x="441" y="-20"/>
      <point x="573" y="134"/>
      <point x="573" y="371" type="curve" smooth="yes"/>
      <point x="573" y="551"/>
      <point x="480" y="691"/>
      <point x="314" y="690" type="curve" smooth="yes"/>
      <point x="163" y="689"/>
      <point x="71" y="574"/>
      <point x="71" y="459" type="curve" smooth="yes"/>
      <point x="71" y="320"/>
      <point x="176" y="246"/>
      <point x="291" y="246" type="curve" smooth="yes"/>
      <point x="405" y="246"/>
      <point x="486" y="339"/>
      <point x="477" y="466" type="curve"/>
    </contour>
  </outline>
</glyph>
<glyph name="equal" format="1">
  <advance width="481"/>
  <unicode hex="003D"/>
  <outline>
    <contour>
      <point x="77" y="457" type="line"/>
      <point x="79" y="419"/>
      <point x="72" y="369"/>
      <point x="39" y="319" type="curve"/>
      <point x="51" y="319" type="line"/>
      <point x="75" y="362"/>
      <point x="124" y="363"/>
      <point x="232" y="363" type="curve" smooth="yes"/>
      <point x="307" y="363" type="line" smooth="yes"/>
      <point x="398" y="363"/>
      <point x="403" y="352"/>
      <point x="403" y="316" type="curve"/>
      <point x="414" y="316" type="line"/>
      <point x="410" y="357"/>
      <point x="414" y="413"/>
      <point x="432" y="457" type="curve"/>
      <point x="423" y="459" type="line"/>
      <point x="402.794873898" y="410.507697356"/>
      <point x="341" y="411"/>
      <point x="233" y="411" type="curve" smooth="yes"/>
      <point x="197" y="411" type="line" smooth="yes"/>
      <point x="95" y="411"/>
      <point x="87" y="421"/>
      <point x="87" y="457" type="curve"/>
    </contour>
    <contour>
      <point x="50" y="277" type="line"/>
      <point x="52" y="239"/>
      <point x="42" y="193"/>
      <point x="12" y="139" type="curve"/>
      <point x="25" y="139" type="line"/>
      <point x="44" y="180"/>
      <point x="76" y="188"/>
      <point x="206" y="188" type="curve" smooth="yes"/>
      <point x="307" y="188" type="line" smooth="yes"/>
      <point x="397" y="188"/>
      <point x="403" y="173"/>
      <point x="403" y="136" type="curve"/>
      <point x="414" y="136" type="line"/>
      <point x="410" y="177"/>
      <point x="414" y="233"/>
      <point x="432" y="277" type="curve"/>
      <point x="422" y="277" type="line"/>
      <point x="403" y="231"/>
      <point x="380" y="227"/>
      <point x="263" y="227" type="curve" smooth="yes"/>
      <point x="170" y="227" type="line" smooth="yes"/>
      <point x="69" y="227"/>
      <point x="60" y="233"/>
      <point x="60" y="277" type="curve"/>
    </contour>
  </outline>
</glyph>
<glyph name="A" format="1">
  <advance width="675.0"/>
  <unicode hex="0041"/>
  <outline>
    <contour>
      <point x="318" y="694" type="line"/>
      <point x="277" y="569"/>
      <point x="236" y="450"/>
      <point x="160" y="245" type="curve" smooth="yes"/>
      <point x="80" y="30"/>
      <point x="63" y="12"/>
      <point x="1" y="12" type="curve"/>
      <point x="1" y="-4" type="line"/>
      <point x="32" y="1"/>
      <point x="80" y="4"/>
      <point x="116" y="4" type="curve" smooth="yes"/>
      <point x="150" y="4"/>
      <point x="212" y="0"/>
      <point x="238" y="-4" type="curve"/>
      <point x="238" y="12" type="line"/>
      <point x="191" y="12"/>
      <point x="177" y="22"/>
      <point x="196" y="110" type="curve" smooth="yes"/>
      <point x="200" y="133"/>
      <point x="214" y="173"/>
      <point x="221" y="194" type="curve"/>
      <point x="227" y="205" type="line"/>
      <point x="245" y="289"/>
      <point x="316" y="479"/>
      <point x="353" y="569" type="curve"/>
    </contour>
    <contour>
      <point x="460" y="119" type="curve" smooth="yes"/>
      <point x="488" y="34"/>
      <point x="479" y="12"/>
      <point x="412" y="12" type="curve"/>
      <point x="412" y="-4" type="line"/>
      <point x="442" y="0"/>
      <point x="495" y="4"/>
      <point x="547" y="4" type="curve" smooth="yes"/>
      <point x="588" y="4"/>
      <point x="643" y="0"/>
      <point x="676" y="-4" type="curve"/>
      <point x="676" y="12" type="line"/>
      <point x="624" y="12"/>
      <point x="604" y="27"/>
      <point x="535" y="193" type="curve" smooth="yes"/>
      <point x="475" y="337"/>
      <point x="398" y="522"/>
      <point x="332" y="694" type="curve"/>
      <point x="318" y="694" type="line"/>
      <point x="294" y="518" type="line"/>
      <point x="343" y="412"/>
      <point x="380" y="327"/>
      <point x="421" y="216" type="curve"/>
      <point x="428" y="201" type="line"/>
      <point x="434" y="186"/>
      <point x="445" y="164"/>
    </contour>
    <contour>
      <point x="187" y="176" type="line"/>
      <point x="220" y="177"/>
      <point x="270" y="179"/>
      <point x="320" y="179" type="curve" smooth="yes"/>
      <point x="359" y="179"/>
      <point x="418" y="177"/>
      <point x="450" y="176" type="curve"/>
      <point x="450" y="235" type="line"/>
      <point x="417" y="233"/>
      <point x="379" y="231"/>
      <point x="319" y="231" type="curve" smooth="yes"/>
      <point x="278" y="231"/>
      <point x="220" y="233"/>
      <point x="187" y="234" type="curve"/>
    </contour>
  </outline>
</glyph>
<glyph name="C" format="1">
  <advance width="696.0"/>
  <unicode hex="0043"/>
  <outline>
    <contour>
      <point x="591" y="475" type="curve"/>
      <point x="606" y="478" type="line"/>
      <point x="602" y="517"/>
      <point x="601" y="548"/>
      <point x="601" y="574" type="curve" smooth="yes"/>
      <point x="601" y="627"/>
      <point x="609" y="664"/>
      <point x="619" y="686" type="curve"/>
      <point x="609" y="691" type="line"/>
      <point x="605" y="679"/>
      <point x="585" y="676"/>
      <point x="565" y="676" type="curve" smooth="yes"/>
      <point x="536" y="676"/>
      <point x="474" y="684"/>
      <point x="414" y="684" type="curve" smooth="yes"/>
      <point x="170" y="684"/>
      <point x="59" y="524"/>
      <point x="59" y="352" type="curve" smooth="yes"/>
      <point x="59" y="156"/>
      <point x="183" y="-10"/>
      <point x="446" y="-10" type="curve" smooth="yes"/>
      <point x="510" y="-10"/>
      <point x="561" y="0"/>
      <point x="580" y="0" type="curve"/>
      <point x="580" y="5" type="line" smooth="yes"/>
      <point x="580" y="26"/>
      <point x="579" y="73"/>
      <point x="614" y="178" type="curve"/>
      <point x="598" y="184" type="line"/>
      <point x="581" y="86"/>
      <point x="541" y="44"/>
      <point x="439" y="44" type="curve" smooth="yes"/>
      <point x="290" y="44"/>
      <point x="176" y="174"/>
      <point x="176" y="368" type="curve" smooth="yes"/>
      <point x="176" y="547"/>
      <point x="276" y="629"/>
      <point x="408" y="629" type="curve" smooth="yes"/>
      <point x="466" y="629"/>
      <point x="522" y="613"/>
      <point x="554" y="588" type="curve" smooth="yes"/>
      <point x="584" y="564"/>
      <point x="593" y="529"/>
    </contour>
  </outline>
</glyph>
<glyph name="F" format="1">
  <advance width="565.0"/>
  <unicode hex="0046"/>
  <outline>
    <contour>
      <point x="342" y="-4" type="curve"/>
      <point x="342" y="12" type="line"/>
      <point x="250" y="12"/>
      <point x="240" y="38"/>
      <point x="240" y="248" type="curve" smooth="yes"/>
      <point x="240" y="277"/>
      <point x="241" y="310"/>
      <point x="242" y="337" type="curve"/>
      <point x="240" y="354" type="line"/>
      <point x="140" y="361" type="line"/>
      <point x="140" y="250" type="line" smooth="yes"/>
      <point x="140" y="40"/>
      <point x="133" y="12"/>
      <point x="38" y="12" type="curve"/>
      <point x="38" y="-4" type="line"/>
      <point x="91" y="0"/>
      <point x="151" y="4"/>
      <point x="190" y="4" type="curve" smooth="yes"/>
      <point x="229" y="4"/>
      <point x="291" y="0"/>
    </contour>
    <contour>
      <point x="240" y="354" type="line"/>
      <point x="239" y="440"/>
      <point x="240" y="543"/>
      <point x="241" y="628" type="curve"/>
      <point x="357" y="641" type="line"/>
      <point x="357" y="672" type="line"/>
      <point x="272" y="672"/>
      <point x="147" y="671"/>
      <point x="42" y="680" type="curve"/>
      <point x="42" y="666" type="line"/>
      <point x="129" y="662"/>
      <point x="140" y="637"/>
      <point x="140" y="424" type="curve" smooth="yes"/>
      <point x="140" y="361" type="line"/>
    </contour>
    <contour>
      <point x="209" y="316" type="line"/>
      <point x="223" y="317"/>
      <point x="261" y="319"/>
      <point x="274" y="319" type="curve" smooth="yes"/>
      <point x="333" y="319"/>
      <point x="383" y="314"/>
      <point x="416" y="292" type="curve" smooth="yes"/>
      <point x="438" y="278"/>
      <point x="454" y="256"/>
      <point x="474" y="220" type="curve"/>
      <point x="487" y="228" type="line"/>
      <point x="457" y="276"/>
      <point x="430" y="336"/>
      <point x="415" y="384" type="curve" smooth="yes"/>
      <point x="403" y="420"/>
      <point x="396" y="450"/>
      <point x="390" y="482" type="curve"/>
      <point x="374" y="481" type="line"/>
      <point x="402" y="394"/>
      <point x="365" y="375"/>
      <point x="288" y="375" type="curve" smooth="yes"/>
      <point x="263" y="375"/>
      <point x="223" y="378"/>
      <point x="209" y="379" type="curve"/>
    </contour>
    <contour>
      <point x="190" y="607" type="line" name=""/>
      <point x="210" y="610"/>
      <point x="268" y="618"/>
      <point x="299" y="618" type="curve" smooth="yes" name=""/>
      <point x="453" y="618"/>
      <point x="496" y="600"/>
      <point x="505" y="496" type="curve" name=""/>
      <point x="521" y="499" type="line" name=""/>
      <point x="498" y="588"/>
      <point x="490" y="642"/>
      <point x="499" y="698" type="curve" name=""/>
      <point x="489" y="701" type="line" name=""/>
      <point x="483" y="681"/>
      <point x="456" y="672"/>
      <point x="357" y="672" type="curve" name=""/>
      <point x="214" y="669" type="line" name=""/>
    </contour>
  </outline>
</glyph>
<glyph name="G" format="1">
  <advance width="766"/>
  <unicode hex="0047"/>
  <outline>
    <contour>
      <point x="600" y="171" type="curve" smooth="yes"/>
      <point x="600" y="275"/>
      <point x="609" y="295"/>
      <point x="681" y="302" type="curve"/>
      <point x="681" y="317" type="line"/>
      <point x="627" y="311"/>
      <point x="591" y="309"/>
      <point x="552" y="309" type="curve" smooth="yes"/>
      <point x="501" y="309"/>
      <point x="446" y="313"/>
      <point x="410" y="317" type="curve"/>
      <point x="410" y="302" type="line"/>
      <point x="491" y="297"/>
      <point x="504" y="280"/>
      <point x="504" y="182" type="curve" smooth="yes"/>
      <point x="504" y="142" type="line"/>
      <point x="525" y="142" type="line"/>
      <point x="525" y="14"/>
      <point x="614" y="-7"/>
      <point x="672" y="-4" type="curve"/>
      <point x="672" y="11" type="line"/>
      <point x="621" y="12"/>
      <point x="600" y="71"/>
    </contour>
    <contour>
      <point x="559" y="84" type="curve"/>
      <point x="560" y="200" type="line"/>
      <point x="504" y="204" type="line"/>
      <point x="506.024358671" y="99.7455284484"/>
      <point x="456.0" y="38.0"/>
      <point x="374" y="38" type="curve" smooth="yes"/>
      <point x="264.0" y="38.0"/>
      <point x="188.0" y="190.987012987"/>
      <point x="188" y="348" type="curve" smooth="yes"/>
      <point x="188.0" y="548.0"/>
      <point x="282.180094787" y="629.0"/>
      <point x="395" y="629" type="curve" smooth="yes"/>
      <point x="472" y="629"/>
      <point x="525" y="596"/>
      <point x="553" y="568" type="curve" smooth="yes"/>
      <point x="576" y="545"/>
      <point x="586" y="505"/>
      <point x="584" y="444" type="curve"/>
      <point x="601" y="446" type="line"/>
      <point x="590" y="574"/>
      <point x="593" y="633"/>
      <point x="600" y="664" type="curve"/>
      <point x="593" y="665" type="line"/>
      <point x="589" y="661"/>
      <point x="578" y="661"/>
      <point x="571" y="661" type="curve" smooth="yes"/>
      <point x="545" y="661"/>
      <point x="471" y="684"/>
      <point x="402" y="684" type="curve" smooth="yes"/>
      <point x="197.471641791" y="684.0"/>
      <point x="71.0" y="542.0"/>
      <point x="71" y="338" type="curve" smooth="yes"/>
      <point x="71.0" y="130.0"/>
      <point x="186.0" y="-14.0"/>
      <point x="372" y="-14" type="curve" smooth="yes"/>
      <point x="462.073298429" y="-14.0"/>
      <point x="533.090312668" y="26.2014667201"/>
    </contour>
  </outline>
</glyph>
<glyph name="I" format="1">
  <advance width="380.0"/>
  <unicode hex="0049"/>
  <outline>
    <contour>
      <point x="140" y="338" type="line"/>
      <point x="140" y="248" type="line" smooth="yes"/>
      <point x="140" y="39"/>
      <point x="132" y="12"/>
      <point x="38" y="12" type="curve"/>
      <point x="38" y="-4" type="line"/>
      <point x="91" y="0"/>
      <point x="151" y="4"/>
      <point x="190" y="4" type="curve" smooth="yes"/>
      <point x="229" y="4"/>
      <point x="291" y="0"/>
      <point x="342" y="-4" type="curve"/>
      <point x="342" y="12" type="line"/>
      <point x="248" y="12"/>
      <point x="240" y="39"/>
      <point x="240" y="248" type="curve" smooth="yes"/>
      <point x="240" y="338" type="line"/>
    </contour>
    <contour>
      <point x="240" y="424" type="line"/>
      <point x="240" y="638"/>
      <point x="251" y="662"/>
      <point x="338" y="666" type="curve"/>
      <point x="338" y="680" type="line"/>
      <point x="295" y="675"/>
      <point x="222" y="672"/>
      <point x="190" y="672" type="curve" smooth="yes"/>
      <point x="159" y="672"/>
      <point x="85" y="675"/>
      <point x="42" y="680" type="curve"/>
      <point x="42" y="666" type="line"/>
      <point x="129" y="662"/>
      <point x="140" y="638"/>
      <point x="140" y="424" type="curve" smooth="yes"/>
      <point x="140" y="338" type="line"/>
      <point x="240" y="338" type="line"/>
    </contour>
  </outline>
</glyph>
<glyph name="J" format="1">
  <advance width="522.0"/>
  <unicode hex="004A"/>
  <outline>
    <contour>
      <point x="200" y="42" type="curve" smooth="yes"/>
      <point x="265" y="42"/>
      <point x="304" y="85"/>
      <point x="304" y="215" type="curve" smooth="yes"/>
      <point x="304" y="356" type="line"/>
      <point x="404" y="356" type="line"/>
      <point x="404" y="193" type="line" smooth="yes"/>
      <point x="404" y="34"/>
      <point x="308" y="-6"/>
      <point x="205" y="-6" type="curve" smooth="yes"/>
      <point x="166" y="-6"/>
      <point x="99" y="2"/>
      <point x="73" y="2" type="curve" smooth="yes"/>
      <point x="59" y="2"/>
      <point x="50" y="-1"/>
      <point x="47" y="-4" type="curve"/>
      <point x="38" y="-1" type="line"/>
      <point x="44" y="13"/>
      <point x="50" y="86"/>
      <point x="16" y="199" type="curve"/>
      <point x="30" y="204" type="line"/>
      <point x="48" y="85"/>
      <point x="134" y="42"/>
    </contour>
    <contour>
      <point x="404" y="424" type="curve" smooth="yes"/>
      <point x="404" y="320" type="line"/>
      <point x="304" y="320" type="line"/>
      <point x="304" y="424" type="line" smooth="yes"/>
      <point x="304" y="638"/>
      <point x="292" y="662"/>
      <point x="200" y="666" type="curve"/>
      <point x="200" y="680" type="line"/>
      <point x="245" y="675"/>
      <point x="322" y="672"/>
      <point x="354" y="672" type="curve" smooth="yes"/>
      <point x="385" y="672"/>
      <point x="455" y="675"/>
      <point x="496" y="680" type="curve"/>
      <point x="496" y="666" type="line"/>
      <point x="414" y="662"/>
      <point x="404" y="638"/>
    </contour>
  </outline>
</glyph>
<glyph name="K" format="1">
  <advance width="666"/>
  <unicode hex="004B"/>
  <outline>
    <contour>
      <point x="406" y="680" type="curve"/>
      <point x="406" y="666" type="line"/>
      <point x="466" y="664"/>
      <point x="480" y="614"/>
      <point x="364" y="466" type="curve" smooth="yes"/>
      <point x="327" y="419"/>
      <point x="287" y="387"/>
      <point x="259" y="366" type="curve"/>
      <point x="259" y="361" type="line"/>
      <point x="367" y="368" type="line"/>
      <point x="407" y="434"/>
      <point x="430" y="469"/>
      <point x="473" y="520" type="curve" smooth="yes"/>
      <point x="566" y="631"/>
      <point x="586" y="656"/>
      <point x="674" y="666" type="curve"/>
      <point x="674" y="680" type="line"/>
      <point x="633" y="676"/>
      <point x="586" y="672"/>
      <point x="533" y="672" type="curve" smooth="yes"/>
      <point x="488" y="672"/>
      <point x="438" y="676"/>
    </contour>
    <contour>
      <point x="259" y="361" type="line"/>
      <point x="315" y="289"/>
      <point x="492" y="61"/>
      <point x="641" y="-69" type="curve"/>
      <point x="656" y="-62" type="line"/>
      <point x="574" y="58"/>
      <point x="434" y="313"/>
      <point x="377" y="439" type="curve"/>
      <point x="334" y="382" type="line"/>
    </contour>
    <contour>
      <point x="240.0" y="338.0" type="line"/>
      <point x="240.0" y="424.0" type="line" smooth="yes"/>
      <point x="240.0" y="637.0"/>
      <point x="248" y="656"/>
      <point x="318" y="666" type="curve"/>
      <point x="318" y="680" type="line"/>
      <point x="291" y="675"/>
      <point x="221.0" y="672.0"/>
      <point x="190.0" y="672.0" type="curve" smooth="yes"/>
      <point x="159.0" y="672.0"/>
      <point x="91.0" y="675.0"/>
      <point x="48.0" y="680.0" type="curve"/>
      <point x="48.0" y="666.0" type="line"/>
      <point x="134.0" y="656.0"/>
      <point x="140.0" y="637.0"/>
      <point x="140.0" y="424.0" type="curve" smooth="yes"/>
      <point x="140.0" y="338.0" type="line"/>
    </contour>
    <contour>
      <point x="326" y="-4" type="curve"/>
      <point x="326" y="12" type="line"/>
      <point x="250" y="17"/>
      <point x="240" y="38"/>
      <point x="240" y="248" type="curve" smooth="yes"/>
      <point x="240" y="361" type="line"/>
      <point x="140" y="361" type="line"/>
      <point x="140" y="248" type="line" smooth="yes"/>
      <point x="140" y="38"/>
      <point x="132" y="17"/>
      <point x="38" y="10" type="curve"/>
      <point x="38" y="-4" type="line"/>
      <point x="91" y="0"/>
      <point x="151" y="4"/>
      <point x="190" y="4" type="curve" smooth="yes"/>
      <point x="229" y="4"/>
      <point x="291" y="0"/>
    </contour>
  </outline>
</glyph>
<glyph name="N" format="1">
  <advance width="733"/>
  <unicode hex="004E"/>
  <outline>
    <contour>
      <point x="618" y="71" type="line"/>
      <point x="618" y="353" type="line" smooth="yes"/>
      <point x="618" y="639"/>
      <point x="625" y="659"/>
      <point x="709" y="666" type="curve"/>
      <point x="709" y="680" type="line"/>
      <point x="682" y="676"/>
      <point x="617" y="672"/>
      <point x="583" y="672" type="curve" smooth="yes"/>
      <point x="552" y="672"/>
      <point x="482" y="676"/>
      <point x="452" y="680" type="curve"/>
      <point x="452" y="666" type="line"/>
      <point x="539" y="654"/>
      <point x="555" y="631"/>
      <point x="555" y="403" type="curve" smooth="yes"/>
      <point x="555" y="330"/>
      <point x="551" y="133"/>
      <point x="548" y="91" type="curve"/>
    </contour>
    <contour>
      <point x="597" y="-24" type="curve"/>
      <point x="621" y="-24" type="line"/>
      <point x="618" y="15"/>
      <point x="618" y="99"/>
      <point x="618" y="248" type="curve"/>
      <point x="612" y="254"/>
      <point x="579" y="253"/>
      <point x="574" y="247" type="curve"/>
      <point x="574" y="200"/>
      <point x="577" y="183"/>
      <point x="571" y="190" type="curve" smooth="yes"/>
      <point x="497" y="276"/>
      <point x="424.0" y="389.0"/>
      <point x="370.0" y="464.0" type="curve" smooth="yes"/>
      <point x="304.0" y="556.0"/>
      <point x="248.0" y="641.0"/>
      <point x="238.0" y="676.0" type="curve"/>
      <point x="221.0" y="673.0"/>
      <point x="184.0" y="672.0"/>
      <point x="158.0" y="672.0" type="curve"/>
      <point x="158.0" y="606.0" type="line"/>
      <point x="177.0" y="580.0"/>
      <point x="173" y="561"/>
      <point x="196" y="530" type="curve" smooth="yes"/>
      <point x="286" y="414"/>
      <point x="406" y="249"/>
      <point x="530" y="79" type="curve" smooth="yes"/>
      <point x="542" y="64"/>
      <point x="581" y="4"/>
    </contour>
    <contour>
      <point x="302" y="-4" type="curve"/>
      <point x="302" y="12" type="line"/>
      <point x="208" y="26"/>
      <point x="203" y="56"/>
      <point x="203" y="265" type="curve" smooth="yes"/>
      <point x="203" y="313"/>
      <point x="206" y="486"/>
      <point x="210" y="588" type="curve"/>
      <point x="196" y="672" type="line"/>
      <point x="158" y="672" type="line" smooth="yes"/>
      <point x="116" y="672"/>
      <point x="61" y="677"/>
      <point x="28" y="680" type="curve"/>
      <point x="28" y="666" type="line"/>
      <point x="134" y="654"/>
      <point x="140" y="641"/>
      <point x="140" y="400" type="curve" smooth="yes"/>
      <point x="140" y="230" type="line" smooth="yes"/>
      <point x="140" y="56"/>
      <point x="132" y="17"/>
      <point x="36" y="12" type="curve"/>
      <point x="36" y="-4" type="line"/>
      <point x="72" y="0"/>
      <point x="132" y="4"/>
      <point x="173" y="4" type="curve" smooth="yes"/>
      <point x="214" y="4"/>
      <point x="266" y="0"/>
    </contour>
  </outline>
</glyph>
<glyph name="O" format="1">
  <advance width="770.0"/>
  <unicode hex="004F"/>
  <outline>
    <contour>
      <point x="168" y="358" type="curve" smooth="yes"/>
      <point x="168" y="538"/>
      <point x="249" y="642"/>
      <point x="377" y="642" type="curve" smooth="yes"/>
      <point x="508" y="642"/>
      <point x="602" y="507"/>
      <point x="602" y="318" type="curve" smooth="yes"/>
      <point x="602" y="118"/>
      <point x="514" y="32"/>
      <point x="396" y="32" type="curve" smooth="yes"/>
      <point x="254" y="32"/>
      <point x="168" y="184"/>
    </contour>
    <contour>
      <point x="53" y="338" type="curve" smooth="yes"/>
      <point x="53" y="126"/>
      <point x="191" y="-24"/>
      <point x="385" y="-24" type="curve" smooth="yes"/>
      <point x="568" y="-24"/>
      <point x="716" y="111"/>
      <point x="716" y="353" type="curve" smooth="yes"/>
      <point x="716" y="540"/>
      <point x="591" y="700"/>
      <point x="392" y="700" type="curve" smooth="yes"/>
      <point x="200" y="700"/>
      <point x="53" y="555"/>
    </contour>
  </outline>
</glyph>
<glyph name="P" format="1">
  <advance width="601.0"/>
  <unicode hex="0050"/>
  <outline>
    <contour>
      <point x="195" y="609" type="line"/>
      <point x="211" y="613"/>
      <point x="249" y="624"/>
      <point x="301" y="624" type="curve" smooth="yes"/>
      <point x="401" y="624"/>
      <point x="471" y="564"/>
      <point x="471" y="459" type="curve" smooth="yes"/>
      <point x="471" y="359"/>
      <point x="407" y="288"/>
      <point x="336" y="288" type="curve" smooth="yes"/>
      <point x="322" y="288"/>
      <point x="312" y="289"/>
      <point x="304" y="291" type="curve"/>
      <point x="301" y="279" type="line"/>
      <point x="315" y="275"/>
      <point x="342" y="269"/>
      <point x="367" y="269" type="curve" smooth="yes"/>
      <point x="475" y="269"/>
      <point x="577" y="344"/>
      <point x="577" y="485" type="curve" smooth="yes"/>
      <point x="577" y="623"/>
      <point x="453" y="676"/>
      <point x="323" y="676" type="curve" smooth="yes"/>
      <point x="284" y="676"/>
      <point x="235" y="672"/>
      <point x="178" y="672" type="curve"/>
    </contour>
    <contour>
      <point x="240" y="317" type="line"/>
      <point x="240" y="436"/>
      <point x="241" y="573"/>
      <point x="244" y="672" type="curve"/>
      <point x="178" y="672" type="line"/>
      <point x="149" y="672"/>
      <point x="85" y="675"/>
      <point x="42" y="680" type="curve"/>
      <point x="42" y="666" type="line"/>
      <point x="132" y="663"/>
      <point x="140" y="630"/>
      <point x="140" y="424" type="curve" smooth="yes"/>
      <point x="140" y="317" type="line"/>
    </contour>
    <contour>
      <point x="140" y="338" type="line"/>
      <point x="140" y="248" type="line" smooth="yes"/>
      <point x="140" y="39"/>
      <point x="132" y="12"/>
      <point x="38" y="12" type="curve"/>
      <point x="38" y="-4" type="line"/>
      <point x="91" y="0"/>
      <point x="151" y="4"/>
      <point x="190" y="4" type="curve" smooth="yes"/>
      <point x="229" y="4"/>
      <point x="291" y="0"/>
      <point x="342" y="-4" type="curve"/>
      <point x="342" y="12" type="line"/>
      <point x="248" y="12"/>
      <point x="240" y="39"/>
      <point x="240" y="248" type="curve" smooth="yes"/>
      <point x="240" y="338" type="line"/>
    </contour>
  </outline>
</glyph>
<glyph name="Q" format="1">
  <advance width="770.0"/>
  <unicode hex="0051"/>
  <outline>
    <contour>
      <point x="293" y="6" type="line"/>
      <point x="311" y="-15"/>
      <point x="374" y="-82"/>
      <point x="428" y="-131" type="curve" smooth="yes"/>
      <point x="506" y="-202"/>
      <point x="570" y="-240"/>
      <point x="632" y="-240" type="curve" smooth="yes"/>
      <point x="720" y="-240"/>
      <point x="818" y="-202"/>
      <point x="862" y="-160" type="curve"/>
      <point x="852" y="-145" type="line"/>
      <point x="838" y="-165"/>
      <point x="799" y="-186"/>
      <point x="752" y="-186" type="curve" smooth="yes"/>
      <point x="695" y="-186"/>
      <point x="628" y="-170"/>
      <point x="556" y="-130" type="curve" smooth="yes"/>
      <point x="525" y="-114"/>
      <point x="438" y="-62"/>
      <point x="385" y="5" type="curve"/>
    </contour>
    <component base="O" xOffset="1"/>
  </outline>
</glyph>
<glyph name="R" format="1">
  <advance width="638.0"/>
  <unicode hex="0052"/>
  <outline>
    <contour>
      <point x="208" y="612" type="line"/>
      <point x="231" y="620"/>
      <point x="265" y="624"/>
      <point x="301" y="624" type="curve" smooth="yes"/>
      <point x="370" y="624"/>
      <point x="455" y="585"/>
      <point x="455" y="473" type="curve" smooth="yes"/>
      <point x="455" y="418"/>
      <point x="429" y="373"/>
      <point x="394" y="350" type="curve" smooth="yes"/>
      <point x="371" y="334"/>
      <point x="331" y="334"/>
      <point x="311" y="334" type="curve" smooth="yes"/>
      <point x="274" y="334"/>
      <point x="230" y="344"/>
      <point x="222" y="346" type="curve"/>
      <point x="222" y="289" type="line"/>
      <point x="232" y="288"/>
      <point x="265" y="285"/>
      <point x="288" y="285" type="curve" smooth="yes"/>
      <point x="320" y="285"/>
      <point x="340" y="288"/>
      <point x="357" y="290" type="curve"/>
      <point x="392" y="317" type="line"/>
      <point x="501" y="349"/>
      <point x="553" y="427"/>
      <point x="553" y="516" type="curve" smooth="yes"/>
      <point x="553" y="623"/>
      <point x="465" y="677"/>
      <point x="345" y="676" type="curve" smooth="yes"/>
      <point x="300" y="676"/>
      <point x="250" y="672"/>
      <point x="196" y="672" type="curve"/>
    </contour>
    <contour>
      <point x="321" y="291" type="line"/>
      <point x="406" y="155"/>
      <point x="488" y="43"/>
      <point x="597" y="-50" type="curve"/>
      <point x="607" y="-40" type="line"/>
      <point x="583" y="-5"/>
      <point x="566" y="32"/>
      <point x="532" y="100" type="curve" smooth="yes"/>
      <point x="500" y="163"/>
      <point x="454" y="278"/>
      <point x="437" y="335" type="curve"/>
    </contour>
    <contour>
      <point x="240" y="317" type="line"/>
      <point x="237" y="436"/>
      <point x="239" y="573"/>
      <point x="242" y="672" type="curve"/>
      <point x="182" y="672" type="line"/>
      <point x="141" y="672"/>
      <point x="88" y="676"/>
      <point x="42" y="680" type="curve"/>
      <point x="42" y="666" type="line"/>
      <point x="132" y="663"/>
      <point x="140" y="632"/>
      <point x="140" y="424" type="curve" smooth="yes"/>
      <point x="140" y="317" type="line"/>
    </contour>
    <contour>
      <point x="140" y="324" type="line"/>
      <point x="140" y="248" type="line" smooth="yes"/>
      <point x="140" y="39"/>
      <point x="132" y="12"/>
      <point x="38" y="12" type="curve"/>
      <point x="38" y="-4" type="line"/>
      <point x="91" y="0"/>
      <point x="151" y="4"/>
      <point x="190" y="4" type="curve" smooth="yes"/>
      <point x="225" y="4"/>
      <point x="280" y="0"/>
      <point x="326" y="-4" type="curve"/>
      <point x="326" y="12" type="line"/>
      <point x="253" y="10"/>
      <point x="239" y="44"/>
      <point x="239" y="210" type="curve" smooth="yes"/>
      <point x="239" y="232"/>
      <point x="239" y="284"/>
      <point x="241" y="325" type="curve"/>
    </contour>
  </outline>
</glyph>
<glyph name="V" format="1">
  <advance width="725"/>
  <unicode hex="0056"/>
  <outline>
    <contour>
      <point x="361" y="-24" type="line"/>
      <point x="533" y="395" type="line" smooth="yes"/>
      <point x="635" y="643"/>
      <point x="674" y="665"/>
      <point x="734" y="666" type="curve"/>
      <point x="734" y="680" type="line"/>
      <point x="711" y="677"/>
      <point x="671" y="672"/>
      <point x="623" y="672" type="curve" smooth="yes"/>
      <point x="588" y="672"/>
      <point x="518" y="675"/>
      <point x="476" y="680" type="curve"/>
      <point x="476" y="666" type="line"/>
      <point x="535" y="666"/>
      <point x="546" y="644"/>
      <point x="497" y="490" type="curve" smooth="yes"/>
      <point x="465" y="391"/>
      <point x="418" y="282"/>
      <point x="375" y="186" type="curve"/>
      <point x="346" y="255"/>
      <point x="311" y="343"/>
      <point x="288" y="404" type="curve" smooth="yes"/>
      <point x="202" y="642"/>
      <point x="225" y="664"/>
      <point x="301" y="666" type="curve"/>
      <point x="301" y="680" type="line"/>
      <point x="269" y="676"/>
      <point x="218" y="672"/>
      <point x="170" y="672" type="curve" smooth="yes"/>
      <point x="88" y="672"/>
      <point x="45" y="676"/>
      <point x="9" y="680" type="curve"/>
      <point x="9" y="666" type="line"/>
      <point x="68" y="668"/>
      <point x="93" y="637"/>
      <point x="202" y="356" type="curve" smooth="yes"/>
      <point x="349" y="-24" type="line"/>
    </contour>
  </outline>
</glyph>
<glyph name="Z" format="1">
  <advance width="638.0"/>
  <unicode hex="005A"/>
  <outline>
    <contour>
      <point x="72" y="-4" type="line"/>
      <point x="92" y="0"/>
      <point x="169" y="0"/>
      <point x="203" y="0" type="curve"/>
      <point x="224" y="47" type="line"/>
      <point x="309" y="208"/>
      <point x="439" y="421"/>
      <point x="539" y="589" type="curve" smooth="yes"/>
      <point x="586" y="668" type="line"/>
      <point x="584" y="680" type="line"/>
      <point x="547" y="673"/>
      <point x="423" y="672"/>
      <point x="324" y="672" type="curve"/>
      <point x="324" y="645" type="line"/>
      <point x="434" y="626" type="line"/>
      <point x="409" y="568"/>
      <point x="344" y="447"/>
      <point x="264" y="314" type="curve" smooth="yes"/>
      <point x="203" y="213"/>
      <point x="132" y="97"/>
      <point x="68" y="10" type="curve"/>
    </contour>
    <contour>
      <point x="454" y="605" type="curve"/>
      <point x="454" y="622"/>
      <point x="468" y="658"/>
      <point x="468" y="672" type="curve"/>
      <point x="324" y="672" type="line" smooth="yes"/>
      <point x="217" y="672"/>
      <point x="126" y="678"/>
      <point x="115" y="704" type="curve"/>
      <point x="103" y="702" type="line"/>
      <point x="103" y="666"/>
      <point x="95" y="571"/>
      <point x="70" y="497" type="curve"/>
      <point x="86" y="494" type="line"/>
      <point x="103" y="605"/>
      <point x="151" y="618"/>
      <point x="297" y="618" type="curve" smooth="yes"/>
      <point x="343" y="618"/>
      <point x="397" y="612"/>
    </contour>
    <contour>
      <point x="114" y="0" type="line"/>
      <point x="323" y="0"/>
      <point x="482" y="0"/>
      <point x="570" y="-4" type="curve"/>
      <point x="572" y="12" type="line"/>
      <point x="576" y="71"/>
      <point x="598" y="139"/>
      <point x="609" y="172" type="curve"/>
      <point x="594" y="178" type="line"/>
      <point x="576" y="79"/>
      <point x="508" y="55"/>
      <point x="372" y="55" type="curve" smooth="yes"/>
      <point x="309" y="55"/>
      <point x="233" y="61"/>
      <point x="156" y="88" type="curve"/>
    </contour>
  </outline>
</glyph>
<glyph name="quoteleft" format="1">
  <advance width="246.0"/>
  <unicode hex="2018"/>
  <outline>
    <contour>
      <point x="180" y="448" type="curve"/>
      <point x="187" y="438" type="line"/>
      <point x="164" y="417"/>
      <point x="112" y="398"/>
      <point x="77" y="398" type="curve" smooth="yes"/>
      <point x="56" y="398"/>
      <point x="45" y="408"/>
      <point x="44" y="434" type="curve" smooth="yes"/>
      <point x="42" y="493"/>
      <point x="76" y="597"/>
      <point x="217" y="699" type="curve"/>
      <point x="226" y="684" type="line"/>
      <point x="173" y="654"/>
      <point x="123" y="596"/>
      <point x="123" y="507" type="curve" smooth="yes"/>
      <point x="123" y="453"/>
      <point x="153" y="424"/>
    </contour>
  </outline>
</glyph>
<glyph name="infinity" format="1">
  <advance width="954.0"/>
  <unicode hex="221E"/>
  <outline>
    <contour>
      <point x="93" y="264" type="curve" smooth="yes"/>
      <point x="95" y="151"/>
      <point x="177" y="115"/>
      <point x="237" y="115" type="curve" smooth="yes"/>
      <point x="308" y="115"/>
      <point x="398" y="143"/>
      <point x="476" y="235" type="curve"/>
      <point x="491" y="220" type="line"/>
      <point x="416" y="127"/>
      <point x="293" y="69"/>
      <point x="209" y="69" type="curve" smooth="yes"/>
      <point x="145" y="69"/>
      <point x="45" y="119"/>
      <point x="45" y="242" type="curve" smooth="yes"/>
      <point x="44" y="316"/>
      <point x="97" y="415"/>
      <point x="222" y="415" type="curve" smooth="yes"/>
      <point x="327" y="415"/>
      <point x="418" y="326"/>
      <point x="513" y="266" type="curve" smooth="yes"/>
      <point x="602" y="210"/>
      <point x="726" y="123"/>
      <point x="791" y="123" type="curve" smooth="yes"/>
      <point x="851" y="123"/>
      <point x="881" y="172"/>
      <point x="881" y="228" type="curve" smooth="yes"/>
      <point x="881" y="319"/>
      <point x="795" y="365"/>
      <point x="722" y="365" type="curve" smooth="yes"/>
      <point x="678" y="365"/>
      <point x="577" y="330"/>
      <point x="508" y="219" type="curve"/>
      <point x="495" y="237" type="line"/>
      <point x="570" y="340"/>
      <point x="663" y="415"/>
      <point x="767" y="415" type="curve" smooth="yes"/>
      <point x="867" y="415"/>
      <point x="937" y="342"/>
      <point x="937" y="245" type="curve" smooth="yes"/>
      <point x="937" y="146"/>
      <point x="855" y="78"/>
      <point x="745" y="78" type="curve" smooth="yes"/>
      <point x="654" y="78"/>
      <point x="552" y="157"/>
      <point x="455" y="221" type="curve" smooth="yes"/>
      <point x="351" y="289"/>
      <point x="262" y="373"/>
      <point x="186" y="372" type="curve" smooth="yes"/>
      <point x="119" y="371"/>
      <point x="92" y="323"/>
    </contour>
  </outline>
</glyph>
<glyph name="lozenge" format="1">
  <advance width="500.0"/>
  <unicode hex="25CA"/>
  <outline>
    <contour>
      <point x="25" y="374" type="curve"/>
      <point x="25" y="365" type="line"/>
      <point x="111" y="223"/>
      <point x="182" y="94"/>
      <point x="238" y="-29" type="curve"/>
      <point x="244" y="-28" type="line"/>
      <point x="273" y="36" type="line"/>
      <point x="215" y="128"/>
      <point x="144" y="255"/>
      <point x="96" y="358" type="curve" smooth="yes"/>
      <point x="75" y="407"/>
      <point x="76" y="419"/>
      <point x="87" y="431" type="curve"/>
      <point x="78" y="440" type="line"/>
      <point x="67" y="418"/>
      <point x="43" y="385"/>
    </contour>
    <contour>
      <point x="475" y="366" type="curve"/>
      <point x="476" y="374" type="line"/>
      <point x="394" y="512"/>
      <point x="317" y="642"/>
      <point x="262" y="760" type="curve"/>
      <point x="256" y="758" type="line"/>
      <point x="228" y="695" type="line"/>
      <point x="284" y="607"/>
      <point x="358" y="480"/>
      <point x="404" y="381" type="curve" smooth="yes"/>
      <point x="426" y="334"/>
      <point x="424" y="321"/>
      <point x="414" y="308" type="curve"/>
      <point x="422" y="299" type="line"/>
      <point x="433" y="320"/>
      <point x="456" y="355"/>
    </contour>
    <contour>
      <point x="39" y="379" type="curve"/>
      <point x="78" y="345" type="line"/>
      <point x="100" y="404"/>
      <point x="128" y="474"/>
      <point x="174" y="559" type="curve" smooth="yes"/>
      <point x="202" y="615"/>
      <point x="240" y="667"/>
      <point x="272" y="713" type="curve"/>
      <point x="260" y="759" type="line"/>
      <point x="253" y="759" type="line"/>
      <point x="225" y="711" type="line" smooth="yes"/>
      <point x="159" y="590"/>
      <point x="111" y="493"/>
    </contour>
    <contour>
      <point x="462" y="360" type="curve"/>
      <point x="461" y="371"/>
      <point x="460" y="381"/>
      <point x="460" y="391" type="curve"/>
      <point x="427" y="409" type="line"/>
      <point x="403" y="340"/>
      <point x="380" y="271"/>
      <point x="327" y="171" type="curve" smooth="yes"/>
      <point x="298" y="116"/>
      <point x="260" y="62"/>
      <point x="228" y="18" type="curve"/>
      <point x="240" y="-28" type="line"/>
      <point x="247" y="-28" type="line"/>
      <point x="276" y="19" type="line" smooth="yes"/>
      <point x="352" y="142"/>
      <point x="387" y="241"/>
    </contour>
  </outline>
</glyph>
<glyph name="A.001" format="1">
  <advance width="675.0"/>
  <outline>
    <contour>
      <point x="466" y="98" type="curve" smooth="yes"/>
      <point x="485" y="32"/>
      <point x="477" y="12"/>
      <point x="412" y="12" type="curve"/>
      <point x="412" y="-4" type="line"/>
      <point x="439" y="0"/>
      <point x="509" y="4"/>
      <point x="527" y="4" type="curve" smooth="yes"/>
      <point x="554" y="4"/>
      <point x="638" y="0"/>
      <point x="675" y="-4" type="curve"/>
      <point x="675" y="12" type="line"/>
      <point x="623" y="12"/>
      <point x="607" y="33"/>
      <point x="542" y="180" type="curve" smooth="yes"/>
      <point x="426" y="442"/>
      <point x="360" y="641"/>
      <point x="351" y="680" type="curve"/>
      <point x="339" y="680" type="line"/>
      <point x="322" y="675"/>
      <point x="281" y="672"/>
      <point x="254" y="672" type="curve" smooth="yes"/>
      <point x="222" y="672"/>
      <point x="175" y="676"/>
      <point x="142" y="680" type="curve"/>
      <point x="142" y="666" type="line"/>
      <point x="217" y="662"/>
      <point x="245" y="651"/>
      <point x="283" y="533" type="curve"/>
      <point x="300" y="505" type="line"/>
      <point x="338" y="424"/>
      <point x="386" y="322"/>
      <point x="424" y="212" type="curve"/>
      <point x="433" y="191" type="line"/>
      <point x="442" y="172"/>
      <point x="456" y="132"/>
    </contour>
    <contour>
      <point x="186" y="176" type="line"/>
      <point x="219" y="177"/>
      <point x="269" y="179"/>
      <point x="319" y="179" type="curve" smooth="yes"/>
      <point x="358" y="179"/>
      <point x="417" y="177"/>
      <point x="449" y="176" type="curve"/>
      <point x="449" y="235" type="line"/>
      <point x="416" y="233"/>
      <point x="378" y="231"/>
      <point x="318" y="231" type="curve" smooth="yes"/>
      <point x="277" y="231"/>
      <point x="219" y="233"/>
      <point x="186" y="234" type="curve"/>
    </contour>
    <contour>
      <point x="292" y="645" type="line"/>
      <point x="272" y="550"/>
      <point x="207" y="367"/>
      <point x="179" y="290" type="curve" smooth="yes"/>
      <point x="85" y="36"/>
      <point x="66" y="12"/>
      <point x="0" y="12" type="curve"/>
      <point x="0" y="-4" type="line"/>
      <point x="28" y="0"/>
      <point x="72" y="4"/>
      <point x="111" y="4" type="curve" smooth="yes"/>
      <point x="149" y="4"/>
      <point x="210" y="0"/>
      <point x="238" y="-4" type="curve"/>
      <point x="238" y="12" type="line"/>
      <point x="177" y="10"/>
      <point x="170" y="40"/>
      <point x="224" y="205" type="curve"/>
      <point x="231" y="221" type="line"/>
      <point x="257" y="318"/>
      <point x="313" y="469"/>
      <point x="355" y="575" type="curve"/>
      <point x="340" y="645" type="line"/>
    </contour>
  </outline>
</glyph>
<glyph name="F.001" format="1">
  <advance width="565.0"/>
  <outline>
    <contour>
      <point x="342" y="-4" type="curve"/>
      <point x="342" y="12" type="line"/>
      <point x="250" y="13"/>
      <point x="240" y="38"/>
      <point x="240" y="247" type="curve" smooth="yes"/>
      <point x="240" y="354" type="line"/>
      <point x="140" y="360" type="line"/>
      <point x="140" y="249" type="line" smooth="yes"/>
      <point x="140" y="40"/>
      <point x="133" y="14"/>
      <point x="38" y="12" type="curve"/>
      <point x="38" y="-4" type="line"/>
      <point x="91" y="0"/>
      <point x="151" y="4"/>
      <point x="190" y="4" type="curve" smooth="yes"/>
      <point x="229" y="4"/>
      <point x="291" y="0"/>
    </contour>
    <contour>
      <point x="240" y="354" type="line"/>
      <point x="238" y="418"/>
      <point x="240" y="557"/>
      <point x="241" y="628" type="curve"/>
      <point x="375" y="641" type="line"/>
      <point x="375" y="672" type="line"/>
      <point x="286" y="672"/>
      <point x="153" y="670"/>
      <point x="42" y="680" type="curve"/>
      <point x="42" y="666" type="line"/>
      <point x="131" y="657"/>
      <point x="140" y="634"/>
      <point x="140" y="423" type="curve" smooth="yes"/>
      <point x="140" y="360" type="line"/>
    </contour>
    <contour>
      <point x="190" y="607" type="line" name=""/>
      <point x="213" y="610"/>
      <point x="278" y="618"/>
      <point x="313" y="618" type="curve" smooth="yes" name=""/>
      <point x="449" y="618"/>
      <point x="487" y="600"/>
      <point x="494" y="496" type="curve" name=""/>
      <point x="510" y="499" type="line" name=""/>
      <point x="491" y="583"/>
      <point x="500" y="663"/>
      <point x="509" y="698" type="curve" name=""/>
      <point x="499" y="701" type="line" name=""/>
      <point x="493" y="685"/>
      <point x="478" y="672"/>
      <point x="369" y="672" type="curve" name=""/>
      <point x="214" y="669" type="line" name=""/>
    </contour>
    <contour>
      <point x="224" y="309" type="line"/>
      <point x="235" y="310"/>
      <point x="266" y="312"/>
      <point x="276" y="312" type="curve" smooth="yes"/>
      <point x="319" y="312"/>
      <point x="378" y="312"/>
      <point x="407" y="296" type="curve" smooth="yes"/>
      <point x="438" y="278"/>
      <point x="449" y="254"/>
      <point x="452" y="209" type="curve"/>
      <point x="466" y="213" type="line"/>
      <point x="457" y="278"/>
      <point x="456" y="313"/>
      <point x="456" y="340" type="curve" smooth="yes"/>
      <point x="456" y="371"/>
      <point x="462" y="408"/>
      <point x="472" y="434" type="curve"/>
      <point x="457" y="437" type="line"/>
      <point x="446" y="379"/>
      <point x="410" y="369"/>
      <point x="325" y="369" type="curve" smooth="yes"/>
      <point x="304" y="369"/>
      <point x="252" y="372"/>
      <point x="224" y="373" type="curve"/>
    </contour>
  </outline>
</glyph>
<glyph name="H.002" format="1">
  <advance width="781.5"/>
  <outline>
    <contour>
      <point x="743.5" y="-4.0" type="curve"/>
      <point x="743.5" y="12.0" type="line"/>
      <point x="651.5" y="17.0"/>
      <point x="641.5" y="38.0"/>
      <point x="641.5" y="248.0" type="curve" smooth="yes"/>
      <point x="641.5" y="424.0" type="line" smooth="yes"/>
      <point x="641.5" y="637.0"/>
      <point x="649.5" y="656.0"/>
      <point x="733.5" y="666.0" type="curve"/>
      <point x="733.5" y="680.0" type="line"/>
      <point x="692.5" y="675.0"/>
      <point x="622.5" y="672.0"/>
      <point x="591.5" y="672.0" type="curve" smooth="yes"/>
      <point x="560.5" y="672.0"/>
      <point x="492.5" y="675.0"/>
      <point x="449.5" y="680.0" type="curve"/>
      <point x="449.5" y="666.0" type="line"/>
      <point x="535.5" y="656.0"/>
      <point x="541.5" y="637.0"/>
      <point x="541.5" y="424.0" type="curve" smooth="yes"/>
      <point x="541.5" y="400.0" type="line"/>
      <point x="505.0" y="398.5"/>
      <point x="462.0" y="397.0"/>
      <point x="402.5" y="397.0" type="curve" smooth="yes"/>
      <point x="349.5" y="397.0"/>
      <point x="282.5" y="399.0"/>
      <point x="240.0" y="400.0" type="curve"/>
      <point x="240.0" y="424.0" type="line" smooth="yes"/>
      <point x="240.0" y="637.0"/>
      <point x="248.0" y="656.0"/>
      <point x="332.0" y="666.0" type="curve"/>
      <point x="332.0" y="680.0" type="line"/>
      <point x="291.0" y="675.0"/>
      <point x="221.0" y="672.0"/>
      <point x="190.0" y="672.0" type="curve" smooth="yes"/>
      <point x="159.0" y="672.0"/>
      <point x="91.0" y="675.0"/>
      <point x="48.0" y="680.0" type="curve"/>
      <point x="48.0" y="666.0" type="line"/>
      <point x="134.0" y="656.0"/>
      <point x="140.0" y="637.0"/>
      <point x="140.0" y="424.0" type="curve" smooth="yes"/>
      <point x="140.0" y="248.0" type="line" smooth="yes"/>
      <point x="140.0" y="38.0"/>
      <point x="132.0" y="17.0"/>
      <point x="38.0" y="10.0" type="curve"/>
      <point x="38.0" y="-4.0" type="line"/>
      <point x="91.0" y="0.0"/>
      <point x="151.0" y="4.0"/>
      <point x="190.0" y="4.0" type="curve" smooth="yes"/>
      <point x="229.0" y="4.0"/>
      <point x="291.0" y="0.0"/>
      <point x="342.0" y="-4.0" type="curve"/>
      <point x="342.0" y="12.0" type="line"/>
      <point x="250.0" y="17.0"/>
      <point x="240.0" y="38.0"/>
      <point x="240.0" y="248.0" type="curve" smooth="yes"/>
      <point x="240.0" y="339.0" type="line"/>
      <point x="279.0" y="340.0"/>
      <point x="324.5" y="342.0"/>
      <point x="388.0" y="342.0" type="curve" smooth="yes"/>
      <point x="451.0" y="342.0"/>
      <point x="503.0" y="340.5"/>
      <point x="541.5" y="339.5" type="curve"/>
      <point x="541.5" y="248.0" type="line" smooth="yes"/>
      <point x="541.5" y="38.0"/>
      <point x="533.5" y="17.0"/>
      <point x="439.5" y="10.0" type="curve"/>
      <point x="439.5" y="-4.0" type="line"/>
      <point x="492.5" y="0.0"/>
      <point x="552.5" y="4.0"/>
      <point x="591.5" y="4.0" type="curve" smooth="yes"/>
      <point x="630.5" y="4.0"/>
      <point x="692.5" y="0.0"/>
    </contour>
  </outline>
</glyph>
<glyph name="K.001" format="1">
  <advance width="803.0"/>
  <outline>
    <contour>
      <point x="259" y="349" type="line"/>
      <point x="323" y="341"/>
      <point x="362" y="302"/>
      <point x="391" y="257" type="curve" smooth="yes"/>
      <point x="436" y="189"/>
      <point x="475" y="106"/>
      <point x="516" y="48" type="curve" smooth="yes"/>
      <point x="550" y="4"/>
      <point x="584" y="-16"/>
      <point x="660" y="-16" type="curve" smooth="yes"/>
      <point x="720" y="-16"/>
      <point x="780" y="14"/>
      <point x="806" y="34" type="curve"/>
      <point x="799" y="49" type="line"/>
      <point x="790" y="38"/>
      <point x="769" y="26"/>
      <point x="741" y="26" type="curve" smooth="yes"/>
      <point x="697" y="26"/>
      <point x="642" y="51"/>
      <point x="562" y="173" type="curve" smooth="yes"/>
      <point x="507" y="257" type="line" smooth="yes"/>
      <point x="442" y="356"/>
      <point x="383" y="376"/>
      <point x="324" y="368" type="curve"/>
      <point x="259" y="353" type="line"/>
    </contour>
    <contour>
      <point x="240" y="424" type="line"/>
      <point x="240" y="638"/>
      <point x="249" y="663"/>
      <point x="322" y="666" type="curve"/>
      <point x="322" y="680" type="line"/>
      <point x="284" y="676"/>
      <point x="219" y="672"/>
      <point x="190" y="672" type="curve" smooth="yes"/>
      <point x="159" y="672"/>
      <point x="85" y="675"/>
      <point x="42" y="680" type="curve"/>
      <point x="42" y="666" type="line"/>
      <point x="129" y="662"/>
      <point x="140" y="638"/>
      <point x="140" y="424" type="curve" smooth="yes"/>
      <point x="140" y="248" type="line" smooth="yes"/>
      <point x="140" y="39"/>
      <point x="132" y="12"/>
      <point x="38" y="12" type="curve"/>
      <point x="38" y="-4" type="line"/>
      <point x="91" y="0"/>
      <point x="151" y="4"/>
      <point x="190" y="4" type="curve" smooth="yes"/>
      <point x="225" y="4"/>
      <point x="280" y="0"/>
      <point x="326" y="-4" type="curve"/>
      <point x="326" y="12" type="line"/>
      <point x="247" y="12"/>
      <point x="240" y="39"/>
      <point x="240" y="248" type="curve" smooth="yes"/>
    </contour>
    <contour>
      <point x="406" y="680" type="curve"/>
      <point x="406" y="666" type="line"/>
      <point x="484" y="666"/>
      <point x="470" y="593"/>
      <point x="380" y="477" type="curve" smooth="yes"/>
      <point x="336" y="421"/>
      <point x="277" y="366"/>
      <point x="259" y="361" type="curve"/>
      <point x="259" y="349" type="line"/>
      <point x="366" y="356" type="line"/>
      <point x="407" y="419"/>
      <point x="442" y="466"/>
      <point x="479" y="512" type="curve" smooth="yes"/>
      <point x="568" y="622"/>
      <point x="599" y="664"/>
      <point x="680" y="666" type="curve"/>
      <point x="680" y="680" type="line"/>
      <point x="641" y="676"/>
      <point x="596" y="672"/>
      <point x="546" y="672" type="curve" smooth="yes"/>
      <point x="496" y="672"/>
      <point x="441" y="676"/>
    </contour>
  </outline>
</glyph>
<glyph name="M.001" format="1">
  <advance width="945"/>
  <outline>
    <contour>
      <point x="460" y="10" type="line"/>
      <point x="494" y="166" type="line"/>
      <point x="478" y="196"/>
      <point x="457" y="238"/>
      <point x="435" y="281" type="curve" smooth="yes"/>
      <point x="337.123958741" y="472.757142059"/>
      <point x="272.000013547" y="653.000365763"/>
      <point x="273" y="680" type="curve"/>
      <point x="160" y="632" type="line"/>
      <point x="170" y="609" type="line"/>
      <point x="208.93496837" y="531.130063261"/>
      <point x="319.470969851" y="301.080450632"/>
      <point x="380" y="164" type="curve" smooth="yes"/>
      <point x="448" y="10" type="line"/>
    </contour>
    <contour>
      <point x="460" y="10" type="line"/>
      <point x="499.060670976" y="128.183568596"/>
      <point x="702" y="559"/>
      <point x="719" y="587" type="curve"/>
      <point x="704" y="661" type="line"/>
      <point x="653" y="676" type="line"/>
      <point x="651" y="589"/>
      <point x="491.841408942" y="259.64861197"/>
      <point x="441" y="147" type="curve"/>
    </contour>
    <contour>
      <point x="672" y="614" type="line"/>
      <point x="688" y="487"/>
      <point x="695.999988938" y="355.000685862"/>
      <point x="697" y="293" type="curve" smooth="yes"/>
      <point x="702.000169983" y="35.9912628847"/>
      <point x="700.099221406" y="17.1823071415"/>
      <point x="612" y="12" type="curve"/>
      <point x="612" y="-4" type="line"/>
      <point x="648.746127949" y="0.0829031054522"/>
      <point x="711.034965035" y="4.0"/>
      <point x="758" y="4" type="curve" smooth="yes"/>
      <point x="801.11409396" y="4.0"/>
      <point x="869.69552032" y="-0.079488036537"/>
      <point x="904" y="-4" type="curve"/>
      <point x="904" y="12" type="line"/>
      <point x="809.588175338" y="17.8399066801"/>
      <point x="799.97119338" y="31.0109755778"/>
      <point x="795" y="263" type="curve" smooth="yes"/>
      <point x="792" y="403" type="line" smooth="yes"/>
      <point x="786.771394154" y="647.001606165"/>
      <point x="796.330302307" y="653.28382766"/>
      <point x="897" y="666" type="curve"/>
      <point x="897" y="680" type="line"/>
      <point x="862.615668597" y="675.832202254"/>
      <point x="799" y="668"/>
      <point x="750" y="668" type="curve" smooth="yes"/>
      <point x="694" y="668"/>
      <point x="672" y="672"/>
      <point x="653" y="676" type="curve"/>
      <point x="658" y="645" type="line"/>
    </contour>
    <contour>
      <point x="282" y="-4" type="curve"/>
      <point x="282" y="12" type="line"/>
      <point x="205.0" y="17.0"/>
      <point x="197.666879917" y="43.0083167594"/>
      <point x="204" y="290" type="curve" smooth="yes"/>
      <point x="205" y="329" type="line" smooth="yes"/>
      <point x="209" y="487"/>
      <point x="219.982984115" y="553.804317321"/>
      <point x="224" y="600" type="curve"/>
      <point x="262" y="676" type="line"/>
      <point x="245" y="672"/>
      <point x="216" y="668"/>
      <point x="179" y="668" type="curve" smooth="yes"/>
      <point x="140" y="668"/>
      <point x="75" y="676"/>
      <point x="38" y="680" type="curve"/>
      <point x="38" y="666" type="line"/>
      <point x="139.144529857" y="653.71141226"/>
      <point x="147" y="644"/>
      <point x="140" y="403" type="curve" smooth="yes"/>
      <point x="138" y="331" type="line" smooth="yes"/>
      <point x="129.833460525" y="37.0045788911"/>
      <point x="108" y="15"/>
      <point x="23" y="12" type="curve"/>
      <point x="23" y="-4" type="line"/>
      <point x="66.0582287821" y="-0.0856155652659"/>
      <point x="115.949640288" y="4.0"/>
      <point x="159" y="4" type="curve" smooth="yes"/>
      <point x="200.0" y="4.0"/>
      <point x="246.13614538" y="0.0987262422642"/>
    </contour>
  </outline>
</glyph>
<glyph name="M.002" format="1">
  <advance width="904.5"/>
  <outline>
    <contour>
      <point x="439.5" y="50.0" type="line"/>
      <point x="473.0" y="206.0" type="line"/>
      <point x="457.5" y="235.5"/>
      <point x="436.0" y="275.0"/>
      <point x="414.5" y="317.0" type="curve" smooth="yes"/>
      <point x="316.561979371" y="509.378571029"/>
      <point x="266.000006773" y="651.000182881"/>
      <point x="267.0" y="678.0" type="curve"/>
      <point x="158.0" y="631.5" type="line"/>
      <point x="168.0" y="609.0" type="line"/>
      <point x="208.467484185" y="531.065031631"/>
      <point x="300.235484926" y="340.540225316"/>
      <point x="361.0" y="204.0" type="curve" smooth="yes"/>
      <point x="427.5" y="50.0" type="line"/>
    </contour>
    <contour>
      <point x="439.5" y="50.0" type="line"/>
      <point x="478.530335488" y="168.091784298"/>
      <point x="653.022364256" y="559.036835245"/>
      <point x="670.0" y="587.0" type="curve"/>
      <point x="657.0" y="661.0" type="line"/>
      <point x="606.0" y="676.0" type="line"/>
      <point x="604.000003113" y="589.000135424"/>
      <point x="468.920704471" y="298.824305985"/>
      <point x="418.0" y="187.0" type="curve"/>
    </contour>
    <contour>
      <point x="624.0" y="614.0" type="line"/>
      <point x="640.012257927" y="486.902702707"/>
      <point x="651.500920298" y="354.985992583"/>
      <point x="654.0" y="293.0" type="curve" smooth="yes"/>
      <point x="664.500084991" y="34.4956314424"/>
      <point x="657.093310847" y="16.5124346596"/>
      <point x="577.5" y="12.0" type="curve"/>
      <point x="577.5" y="-4.0" type="line"/>
      <point x="613.873063974" y="0.0414515527261"/>
      <point x="675.017482517" y="4.0"/>
      <point x="723.0" y="4.0" type="curve" smooth="yes"/>
      <point x="765.55704698" y="4.0"/>
      <point x="835.84776016" y="-0.0397440182685"/>
      <point x="870.5" y="-4.0" type="curve"/>
      <point x="870.5" y="12.0" type="line"/>
      <point x="776.64384065" y="17.4013494581"/>
      <point x="764.093596393" y="37.1284915725"/>
      <point x="749.5" y="307.5" type="curve" smooth="yes"/>
      <point x="746.0" y="403.0" type="line" smooth="yes"/>
      <point x="734.279540831" y="641.104295214"/>
      <point x="742.345478319" y="656.250823924"/>
      <point x="845.0" y="666.0" type="curve"/>
      <point x="845.0" y="680.0" type="line"/>
      <point x="811.753771788" y="675.909343313"/>
      <point x="750.0" y="668.0"/>
      <point x="695.5" y="668.0" type="curve" smooth="yes"/>
      <point x="647.0" y="668.0"/>
      <point x="625.0" y="672.0"/>
      <point x="606.0" y="676.0" type="curve"/>
      <point x="611.0" y="645.0" type="line"/>
    </contour>
    <contour>
      <point x="280.0" y="-4.0" type="curve"/>
      <point x="280.0" y="12.0" type="line"/>
      <point x="204.600770314" y="17.2131786533"/>
      <point x="193.833439958" y="43.0041583797"/>
      <point x="203.5" y="290.0" type="curve" smooth="yes"/>
      <point x="205.0" y="329.0" type="line" smooth="yes"/>
      <point x="211.226092107" y="486.887052657"/>
      <point x="216.994044108" y="553.93150724"/>
      <point x="221.0" y="600.0" type="curve"/>
      <point x="261.5" y="676.0" type="line"/>
      <point x="244.5" y="672.0"/>
      <point x="215.5" y="668.0"/>
      <point x="178.5" y="668.0" type="curve" smooth="yes"/>
      <point x="139.416666667" y="668.0"/>
      <point x="74.3712286441" y="676.013921228"/>
      <point x="37.5" y="680.0" type="curve"/>
      <point x="37.5" y="666.0" type="line"/>
      <point x="139.0837358" y="653.912622145"/>
      <point x="148.520714723" y="643.997153351"/>
      <point x="140.0" y="403.0" type="curve" smooth="yes"/>
      <point x="137.5" y="331.0" type="line" smooth="yes"/>
      <point x="127.29211306" y="37.0114765893"/>
      <point x="106.782458504" y="19.8939995517"/>
      <point x="21.0" y="12.0" type="curve"/>
      <point x="21.0" y="-4.0" type="line"/>
      <point x="54.3635341591" y="-0.0704044879616"/>
      <point x="114.773431255" y="4.0"/>
      <point x="158.5" y="4.0" type="curve" smooth="yes"/>
      <point x="208.174311926" y="4.0"/>
      <point x="244.71191603" y="0.15313968605"/>
    </contour>
  </outline>
</glyph>
<glyph name="N.001" format="1">
  <advance width="788"/>
  <outline>
    <contour>
      <point x="673" y="71" type="line"/>
      <point x="673" y="353" type="line" smooth="yes"/>
      <point x="673" y="639"/>
      <point x="680" y="659"/>
      <point x="764" y="666" type="curve"/>
      <point x="764" y="680" type="line"/>
      <point x="737" y="676"/>
      <point x="672" y="672"/>
      <point x="638" y="672" type="curve" smooth="yes"/>
      <point x="607" y="672"/>
      <point x="537" y="676"/>
      <point x="507" y="680" type="curve"/>
      <point x="507" y="666" type="line"/>
      <point x="594" y="654"/>
      <point x="610" y="631"/>
      <point x="610" y="403" type="curve" smooth="yes"/>
      <point x="610" y="330"/>
      <point x="606" y="133"/>
      <point x="603" y="91" type="curve"/>
    </contour>
    <contour>
      <point x="652" y="-24" type="curve"/>
      <point x="673" y="-24" type="line"/>
      <point x="672" y="15"/>
      <point x="673" y="99"/>
      <point x="673" y="248" type="curve"/>
      <point x="667" y="254"/>
      <point x="634" y="253"/>
      <point x="629" y="247" type="curve"/>
      <point x="629.0" y="189.280701754"/>
      <point x="633.117337296" y="168.865900233"/>
      <point x="626" y="177" type="curve" smooth="yes"/>
      <point x="542.667363217" y="273.38473652"/>
      <point x="449.828378907" y="383.707270894"/>
      <point x="385" y="465" type="curve" smooth="yes"/>
      <point x="311" y="558"/>
      <point x="247" y="640"/>
      <point x="234" y="676" type="curve"/>
      <point x="218" y="673"/>
      <point x="182.7" y="672.0"/>
      <point x="158" y="672" type="curve"/>
      <point x="158" y="606" type="line"/>
      <point x="191" y="538" type="line"/>
      <point x="292.600459375" y="418.470047794"/>
      <point x="438" y="245"/>
      <point x="531" y="133" type="curve" smooth="yes"/>
      <point x="592" y="58"/>
      <point x="636.138926941" y="3.75687785292"/>
    </contour>
    <contour>
      <point x="302" y="-4" type="curve"/>
      <point x="302" y="12" type="line"/>
      <point x="208" y="26"/>
      <point x="203" y="56"/>
      <point x="203" y="265" type="curve" smooth="yes"/>
      <point x="203" y="313"/>
      <point x="206" y="486"/>
      <point x="210" y="588" type="curve"/>
      <point x="196" y="672" type="line"/>
      <point x="158" y="672" type="line" smooth="yes"/>
      <point x="116" y="672"/>
      <point x="61" y="677"/>
      <point x="28" y="680" type="curve"/>
      <point x="28" y="666" type="line"/>
      <point x="134" y="654"/>
      <point x="140" y="641"/>
      <point x="140" y="400" type="curve" smooth="yes"/>
      <point x="140" y="230" type="line" smooth="yes"/>
      <point x="140" y="56"/>
      <point x="132" y="17"/>
      <point x="36" y="12" type="curve"/>
      <point x="36" y="-4" type="line"/>
      <point x="72" y="0"/>
      <point x="132" y="4"/>
      <point x="173" y="4" type="curve" smooth="yes"/>
      <point x="214" y="4"/>
      <point x="266" y="0"/>
    </contour>
  </outline>
</glyph>
<glyph name="O.002" format="1">
  <advance width="809"/>
  <outline>
    <contour>
      <point x="55" y="134"/>
      <point x="199" y="-24"/>
      <point x="397" y="-24" type="curve" smooth="yes"/>
      <point x="599" y="-24"/>
      <point x="752" y="122"/>
      <point x="752" y="359" type="curve" smooth="yes"/>
      <point x="752" y="530"/>
      <point x="628" y="700"/>
      <point x="417" y="700" type="curve" smooth="yes"/>
      <point x="214" y="700"/>
      <point x="55" y="560"/>
      <point x="55" y="330" type="curve" smooth="yes"/>
    </contour>
    <contour>
      <point x="266.0" y="32.0"/>
      <point x="171.0" y="176.332298137"/>
      <point x="171" y="357" type="curve" smooth="yes"/>
      <point x="171.0" y="522.776173285"/>
      <point x="256.0" y="637.0"/>
      <point x="396" y="637" type="curve" smooth="yes"/>
      <point x="537.0" y="637.0"/>
      <point x="638.0" y="496.712962963"/>
      <point x="638" y="310" type="curve" smooth="yes"/>
      <point x="638.0" y="115.905454545"/>
      <point x="530.0" y="32.0"/>
      <point x="417" y="32" type="curve" smooth="yes"/>
    </contour>
  </outline>
</glyph>
<glyph name="R.001" format="1">
  <advance width="790.0"/>
  <outline>
    <contour>
      <point x="208" y="612" type="line"/>
      <point x="230" y="620"/>
      <point x="261" y="624"/>
      <point x="295" y="624" type="curve" smooth="yes"/>
      <point x="374" y="624"/>
      <point x="449" y="585"/>
      <point x="449" y="481" type="curve" smooth="yes"/>
      <point x="449" y="423"/>
      <point x="420" y="391"/>
      <point x="393" y="372" type="curve" smooth="yes"/>
      <point x="365" y="352"/>
      <point x="327" y="348"/>
      <point x="302" y="348" type="curve" smooth="yes"/>
      <point x="267" y="348"/>
      <point x="227" y="357"/>
      <point x="219" y="359" type="curve"/>
      <point x="219" y="300" type="line"/>
      <point x="231" y="302"/>
      <point x="265" y="304"/>
      <point x="288" y="304" type="curve"/>
      <point x="356" y="306" type="line"/>
      <point x="372" y="320" type="line"/>
      <point x="488" y="341"/>
      <point x="547" y="419"/>
      <point x="547" y="492" type="curve" smooth="yes"/>
      <point x="547" y="623"/>
      <point x="456" y="677"/>
      <point x="331" y="676" type="curve" smooth="yes"/>
      <point x="296" y="676"/>
      <point x="248" y="672"/>
      <point x="196" y="672" type="curve"/>
    </contour>
    <contour>
      <point x="236" y="294" type="line"/>
      <point x="249" y="295"/>
      <point x="260" y="295"/>
      <point x="271" y="295" type="curve" smooth="yes"/>
      <point x="317" y="295"/>
      <point x="349" y="282"/>
      <point x="375" y="250" type="curve" smooth="yes"/>
      <point x="407" y="211"/>
      <point x="433" y="166"/>
      <point x="455" y="127" type="curve" smooth="yes"/>
      <point x="478" y="88"/>
      <point x="498" y="54"/>
      <point x="515" y="34" type="curve" smooth="yes"/>
      <point x="551" y="-8"/>
      <point x="592" y="-16"/>
      <point x="636" y="-16" type="curve" smooth="yes"/>
      <point x="696" y="-16"/>
      <point x="753" y="5"/>
      <point x="793" y="34" type="curve"/>
      <point x="786" y="49" type="line"/>
      <point x="776" y="38"/>
      <point x="756" y="26"/>
      <point x="729" y="26" type="curve" smooth="yes"/>
      <point x="693" y="26"/>
      <point x="646" y="39"/>
      <point x="581" y="125" type="curve" smooth="yes"/>
      <point x="529" y="195"/>
      <point x="496" y="253"/>
      <point x="451" y="291" type="curve" smooth="yes"/>
      <point x="423" y="315"/>
      <point x="388" y="323"/>
      <point x="349" y="329" type="curve"/>
      <point x="236" y="329" type="line"/>
    </contour>
    <contour>
      <point x="240" y="325" type="line"/>
      <point x="237" y="441"/>
      <point x="239" y="575"/>
      <point x="242" y="672" type="curve"/>
      <point x="182" y="672" type="line"/>
      <point x="151" y="672"/>
      <point x="91" y="675"/>
      <point x="48" y="680" type="curve"/>
      <point x="48" y="666" type="line"/>
      <point x="134" y="656"/>
      <point x="140" y="637"/>
      <point x="140" y="424" type="curve" smooth="yes"/>
      <point x="140" y="317" type="line"/>
    </contour>
    <contour>
      <point x="326" y="-4" type="curve"/>
      <point x="326" y="12" type="line"/>
      <point x="250" y="17"/>
      <point x="240" y="37"/>
      <point x="240" y="256" type="curve" smooth="yes"/>
      <point x="240" y="336" type="line"/>
      <point x="140" y="338" type="line"/>
      <point x="140" y="248" type="line" smooth="yes"/>
      <point x="140" y="38"/>
      <point x="132" y="17"/>
      <point x="38" y="10" type="curve"/>
      <point x="38" y="-4" type="line"/>
      <point x="91" y="0"/>
      <point x="151" y="4"/>
      <point x="190" y="4" type="curve" smooth="yes"/>
      <point x="229" y="4"/>
      <point x="291" y="0"/>
    </contour>
  </outline>
</glyph>
